<svg xmlns="http://www.w3.org/2000/svg" width="32" height="32" viewBox="0 0 32 32"><g transform="matrix(3.77953 0 0 3.77953 -11 -1083.763)"><path fill="#2a292e" d="m 7.6718472,291.0451 2.6521298,1.53122 c 0.111206,0.0642 0.112857,0.2241 0.003,0.2906 l -2.9003425,1.75465 -2.5e-5,4.2e-4 c -0.1324055,0.0799 -0.2978167,0.0815 -0.4316806,0.004 l -2.7616199,-1.59442 -0.1085897,-0.0641 c -0.094553,-0.078 -0.1584985,-0.20727 -0.1559077,-0.31524 l -6.16e-5,-0.20737 0.2178722,-0.20737"/><g transform="translate(0 -.032)"><path fill="#2a292e" d="m 4.10576,289.15126 2.9997294,-1.65095 a 0.20432513,0.20432513 30.586489 0 1 0.3028439,0.179 l 0,2.8495 a 0.26458335,0.26458335 120.00752 0 1 -0.1323519,0.22917 l -3.3072314,1.90827 0,-3.28319 a 0.26458328,0.26458328 120.58649 0 1 0.13701,-0.2318 z"/><path fill="#2a292e" fill-rule="evenodd" d="m 7.274141,287.4871 0.2830205,0.14046 -0.2041253,0.10713 z"/></g><path fill="#eef2fa" d="m 4.3703493,289.25166 2.9997294,-1.65095 a 0.20432513,0.20432513 30.586489 0 1 0.3028439,0.179 l 0,2.84951 a 0.26458335,0.26458335 120.00752 0 1 -0.1323519,0.22917 l -3.3072314,1.90827 0,-3.2832 a 0.26458328,0.26458328 120.58649 0 1 0.13701,-0.2318 z"/><path fill="#6fb7e6" d="m 4.4979173,289.52313 2.9122634,-1.59134 0,2.74138 -2.9122634,1.66634 z"/><path fill="#2a292e" fill-rule="evenodd" d="m 10.407753,292.69741 -0.227124,-0.19183 0.227756,-0.0356 z"/><path fill="#3c3b41" d="M 7.4266342,294.35666 10.326977,292.602 a 0.16879489,0.16879489 89.413345 0 0 -0.003,-0.2906 l -2.5445264,-1.46909 a 0.21513831,0.21513831 179.99231 0 0 -0.2151881,3e-5 l -3.3309525,1.92432 2.7616199,1.59442 a 0.42420263,0.42420263 179.41335 0 0 0.4316803,-0.004 z"/><path fill="#2a292e" d="M6.2590168 293.51501l2.70404-1.58387a.0620197.0620197 90.429715 0 0 .0007992-.10656l-1.1976492-.72586a.11640325.11640325.60160148 0 0-.1185615-.001l-2.7850217 1.60894a.06861622.06861622 89.662527 0 0 .0007023.11923l1.2290222.69084a.16743547.16743547 179.49064 0 0 .1666687-.001zM7.7486893 293.80814L8.7109597 293.2539A.04836728.04836728 89.888119 0 0 8.7107959 293.17l-.5166647-.2949a.12120929.12120929 179.91657 0 0-.1204767.00018l-.9658091.555a.05162987.05162987 90.117741 0 0-.0001838.0894l.4968472.28824a.14405043.14405043.08929066 0 0 .1441805.00022z"/></g></svg>